. 
 
http://www.torrenting.com          :     Once & For all ;)


               www . Torrenting . Com 

(((((((((((((= Enjoy No RAR releases =))))))))))))))))))))


...................................NFO:....................................

.[IMG]http://img638.imageshack.us/img638/6083/0078693682037500x500.jpg[/IMG]


[color=blue][size=5][b]The.Help.2011.BDRip.XVID.AC3.HQ.Hive-CM8[/b][/size][/color]


[b]Thx Hive

CM8 Doing It Right The First Time :D


Source: Bluray

Video: 720x384 @bitrate 1700 2pass
Audio: English DTS to AC3 5.1 @384
Sample: Yes, included
Subs: Yes, english in srt /subs[/b]
 
http://www.imdb.com/title/tt1454029/


General
Complete name                  : The.Help.2011.BDRip.XVID.AC3.HQ.Hive-CM8.avi
Format                         : AVI
Format/Info                    : Audio Video Interleave
Format profile                 : OpenDML
Format settings                : rec
File size                      : 2.13 GiB
Duration                       : 2h 26mn
Overall bit rate               : 2 089 Kbps
Writing application            : AVI-Mux GUI 1.17.7, Aug  8 2006  20:59:17

Video
ID                             : 0
Format                         : MPEG-4 Visual
Format profile                 : Advanced Simple@L5
Format settings, BVOP          : 1
Format settings, QPel          : Yes
Format settings, GMC           : No warppoints
Format settings, Matrix        : Default (H.263)
Muxing mode                    : Packed bitstream
Codec ID                       : XVID
Codec ID/Hint                  : XviD
Duration                       : 2h 26mn
Bit rate                       : 1 700 Kbps
Width                          : 720 pixels
Height                         : 384 pixels
Display aspect ratio           : 1.850
Frame rate                     : 23.976 fps
Color space                    : YUV
Chroma subsampling             : 4:2:0
Bit depth                      : 8 bits
Scan type                      : Progressive
Compression mode               : Lossy
Bits/(Pixel*Frame)             : 0.256
Stream size                    : 1.74 GiB (81%)
Writing library                : XviD 1.2.1 (UTC 2008-12-04)

Audio
ID                             : 1
Format                         : AC-3
Format/Info                    : Audio Coding 3
Mode extension                 : CM (complete main)
Codec ID                       : 2000
Duration                       : 2h 26mn
Bit rate mode                  : Constant
Bit rate                       : 384 Kbps
Channel(s)                     : 6 channels
Channel positions              : Front: L C R, Side: L R, LFE
Sampling rate                  : 48.0 KHz
Bit depth                      : 16 bits
Compression mode               : Lossy
Stream size                    : 402 MiB (18%)
Alignment                      : Aligned on interleaves
Interleave, duration           : 64 ms (1.53 video frames)
Interleave, preload duration   : 192 ms


Plot:
An aspiring author during the civil rights movement of the 1960's decides to write a
book detailing the African-American maid's point of view on the white families for
which they work, and the hardships they go through on a daily basis.


Cast:
Emma Stone            ...    Eugenia 'Skeeter' Phelan
Viola Davis           ...    Aibileen Clark
Bryce Dallas Howard   ...    Hilly Holbrook
Octavia Spencer       ...    Minny Jackson
Jessica Chastain      ...    Celia Foote


[img]http://img32.imageshack.us/img32/3644/53769002.png[/img]
[img]http://img805.imageshack.us/img805/6198/hehev.png[/img]
[img]http://img546.imageshack.us/img546/7792/heheheem.png[/img]
[img]http://img832.imageshack.us/img832/4554/hehehehe.png[/img]
[img]http://img535.imageshack.us/img535/8749/hehehehehe.png[/img]
[img]http://img831.imageshack.us/img831/3250/hehehehehehe.png[/img]
[img]http://img834.imageshack.us/img834/1683/hehheehehehehe.png[/img]
[img]http://img215.imageshack.us/img215/6415/hehheheehehehehe.png[/img]



Greetz

ViSiON,SPK,SANTi,3LT0N,FUSiON,YanKeeS,MAGNET,T0XiC,LKRG,FANTASIA-PLAY,FANTASIA-M,FLAWL3SS,
WBZ,BHRG,NOVA,D2U,THC,Vik,Rapeseed,SAFC,goldadvance,MEMORY100,KaN1vE,Unevano,Pinnz,Wayne,
Mr Hive,and all P2P groups
Great Work Guys :D

LOOKING FOR ANYTHING YOU WANT TO LOOK AND SOUND BETTER

CM8@hushmail.com